<svg xmlns="http://www.w3.org/2000/svg" viewBox="0 0 16 16" width="16" height="16"><g fill="#f6f6f6"><path d="M16 16H0V0h16v16z" opacity="0"/><path d="M15 3.349v8.403L8.975 16H8.07L1 11.582V3.327L7.595 0h1.118L15 3.349z"/></g><path d="M12.715 4.398L8.487 7.02 3.565 4.272l4.578-2.309 4.572 2.435zM3 5.102l5 2.792v5.705l-5-3.125V5.102zm6 8.434V7.878l4-2.48v5.317l-4 2.821z" fill="#f0eff1"/><path d="M8.156.837L2 3.942v7.085L8.517 15.1 14 11.233V3.95L8.156.837zm4.559 3.561L8.487 7.02 3.565 4.272l4.578-2.309 4.572 2.435zM3 5.102l5 2.792v5.705l-5-3.125V5.102zm6 8.434V7.878l4-2.48v5.317l-4 2.821z" fill="#652d90"/><g fill="#f6f6f6"><path d="M16 16H0V0h16z" opacity="0"/><path d="M15.982 12.5l-1.393 1.045.737 2.455h-1.677l-1.167-.875-1.167.875H9.638l.736-2.455L8.982 12.5V11h2.155l.6-2h1.489l.6 2h2.156z"/></g><path d="M13.982 15l-1.5-1.125-1.5 1.125.551-1.837L9.982 12h1.9l.6-2 .6 2h1.9l-1.551 1.163z" fill="#424242"/></svg>