<svg xmlns="http://www.w3.org/2000/svg" viewBox="0 0 16 16" width="16" height="16"><g fill="#f6f6f6"><path d="M16 16H0V0h16v16z" opacity="0"/><path d="M16 5.5a5.5 5.5 0 0 1-5.5 5.5c-.275 0-.543-.027-.807-.066l-.079-.012a5.429 5.429 0 0 1-.81-.192l-4.537 4.537A2.48 2.48 0 0 1 2.5 16c-.667 0-1.295-.26-1.768-.732a2.502 2.502 0 0 1 0-3.535l4.537-4.537a5.452 5.452 0 0 1-.191-.812l-.012-.077A5.503 5.503 0 0 1 5 5.5a5.5 5.5 0 1 1 11 0z"/></g><path d="M15 5.5a4.5 4.5 0 0 1-4.5 4.5c-.693 0-1.342-.17-1.929-.45l-5.01 5.01c-.293.294-.677.44-1.061.44s-.768-.146-1.061-.439a1.5 1.5 0 0 1 0-2.121l5.01-5.011A4.475 4.475 0 0 1 6 5.5 4.5 4.5 0 0 1 10.5 1c.693 0 1.342.17 1.929.45L9.636 4.243l2.121 2.121 2.793-2.793c.28.587.45 1.236.45 1.929z" fill="#424242"/><g fill="#f6f6f6"><path d="M16 16H0V0h16z" opacity="0"/><path d="M15.982 12.5l-1.393 1.045.737 2.455h-1.677l-1.167-.875-1.167.875H9.638l.736-2.455L8.982 12.5V11h2.155l.6-2h1.489l.6 2h2.156z"/></g><path d="M13.982 15l-1.5-1.125-1.5 1.125.551-1.837L9.982 12h1.9l.6-2 .6 2h1.9l-1.551 1.163z" fill="#424242"/></svg>